<?xml version="1.0" encoding="UTF-8" standalone="no"?>
<!-- Generator: Gravit.io -->
<svg xmlns="http://www.w3.org/2000/svg" xmlns:xlink="http://www.w3.org/1999/xlink" style="isolation:isolate" viewBox="0 0 500 500" width="500pt" height="500pt"><defs><clipPath id="_clipPath_VOmvpxpJ5AJ3PGeHxBbjZoG5JjSHdYAo"><rect width="500" height="500"/></clipPath></defs><g clip-path="url(#_clipPath_VOmvpxpJ5AJ3PGeHxBbjZoG5JjSHdYAo)"><g><path d=" M 15.5 235.045 Q 15.5 132.452 20.915 49.643 C 21.971 33.499 35.949 19.792 52.11 19.052 Q 189.543 12.759 254.885 13.064 Q 320.228 13.37 447.889 19.082 C 464.051 19.805 477.784 33.513 478.539 49.673 Q 484.5 177.336 484.5 252.45 Q 484.5 327.563 478.63 445.46 C 477.825 461.618 464.087 475.879 447.971 477.287 Q 337.327 486.95 245.725 486.95 Q 154.124 486.95 52.015 477.451 C 35.906 475.953 22.127 461.62 21.264 445.466 Q 15.5 337.639 15.5 235.045 Z " fill="none" vector-effect="non-scaling-stroke" stroke-width="9.771" stroke="rgb(38,38,38)" stroke-linejoin="round" stroke-linecap="square" stroke-miterlimit="3"/><path d=" M 249.29 486.946 Q 314.106 293.015 363.012 193.874 Q 396.415 126.16 462.692 23.647 C 471.69 29.101 478.033 38.836 478.539 49.673 Q 484.5 177.336 484.5 252.45 Q 484.5 327.563 478.63 445.46 C 477.825 461.618 464.087 475.879 447.971 477.287 Q 339.475 486.762 249.29 486.946 Z " fill="rgb(34,211,238)" vector-effect="non-scaling-stroke" stroke-width="9" stroke="rgb(38,38,38)" stroke-linejoin="miter" stroke-linecap="square" stroke-miterlimit="3"/><path d=" M 30.464 28.953 Q 103.676 126.645 138.871 195.758 Q 186.046 288.395 241.344 486.944 Q 151.685 486.723 52.015 477.451 C 35.906 475.953 22.127 461.62 21.264 445.466 Q 15.5 337.639 15.5 235.045 Q 15.5 132.452 20.915 49.643 C 21.431 41.755 25.031 34.449 30.464 28.953 Z " fill="rgb(236,72,153)" vector-effect="non-scaling-stroke" stroke-width="9" stroke="rgb(38,38,38)" stroke-linejoin="miter" stroke-linecap="square" stroke-miterlimit="3"/><path d=" M 465.078 25.238 Q 400.37 124.838 364.896 195.758 Q 313.603 298.3 249.379 486.946 Q 247.548 486.95 245.725 486.95 Q 243.269 486.95 240.806 486.943 Q 180.163 296.762 129.454 195.758 Q 95.029 127.188 29.927 29.509 C 35.661 23.444 43.582 19.442 52.11 19.052 Q 189.543 12.759 254.885 13.064 Q 320.228 13.37 447.889 19.082 C 454.197 19.364 460.136 21.625 465.078 25.238 Z " fill="rgb(52,211,153)" vector-effect="non-scaling-stroke" stroke-width="9" stroke="rgb(38,38,38)" stroke-linejoin="miter" stroke-linecap="square" stroke-miterlimit="3"/></g></g></svg>